<svg width="539" height="287" viewBox="0 0 539 287" fill="none" xmlns="http://www.w3.org/2000/svg">
<path d="M147.504 248.067H171.948L224.062 150.325L231.489 164.599L179.908 261.304H30.4307V154.701L35.165 153.58C36.4627 156.166 37.8452 158.678 39.2539 161.237C40.6555 163.784 42.0833 166.379 43.4307 169.063L43.6963 169.593V248.067H102.483C74.308 195.568 46.1401 142.789 18.2383 89.9961V273.435H188.153L238.87 178.81L241.097 182.804C241.954 184.341 242.722 185.872 243.462 187.348C244.209 188.837 244.93 190.271 245.726 191.698L246.391 192.891L196.107 287H4.97266V46.9746L9.67871 45.7988L117.419 248.067H132.252L0 0H14.9219L147.504 248.067Z" fill="#EEEEEE"/>
<path d="M385.229 286.671H312.807L307.469 276.794L307.464 276.783C277.707 221.108 247.949 165.431 218.19 109.423L218.177 109.397L218.164 109.371L216.906 106.865V106.574C203.687 82.0044 177.274 65.9464 148.321 65.9463H96.9336L89.4941 52.71H148.321C183.302 52.7101 215.246 72.6619 230.228 103.486L320.758 273.435H377.271L523.077 0H538.336L385.229 286.671Z" fill="#EEEEEE"/>
<path d="M369.688 261.304H329.994L248.954 110.442L233.499 83.2471C223.829 69.7937 210.949 58.8958 196.139 51.5176L194.75 50.8232C180.546 43.8447 164.577 39.9209 148.32 39.9209H82.6357L75.8281 26.3555H148.32C158.792 26.3555 179.405 27.7014 202.045 39.4854C225.005 51.264 238.172 67.4145 244.245 75.8184L244.322 75.9248L260.258 103.712L260.276 103.743L260.293 103.774L337.614 248.067H361.401L493.983 0H509.239L369.688 261.304Z" fill="#EEEEEE"/>
<path d="M349.291 243.125L347.116 238.854C335.864 216.762 279.081 107.558 260.933 77.626C259.449 75.3952 257.349 71.4565 253.496 66.6582L253.469 66.626L253.443 66.5918C239.19 47.5488 222.664 36.5546 215.534 32.3516L214.062 31.5293C206.384 27.2843 193.951 21.0943 177.537 17.46C165.845 14.871 155.781 14.2246 148.321 14.2246H52.3057C70.1674 47.7482 88.0291 81.1983 105.892 114.649C123.675 147.953 141.458 181.258 159.242 214.636C166.753 200.68 174.204 186.662 181.656 172.636C189.839 157.236 198.026 141.827 206.296 126.5L208.535 122.348L215.952 136.6L215.327 137.764C197.467 171.048 179.29 204.636 161.439 238.233L159.238 242.377L30.083 0.65918H148.321C161.106 0.659208 191.049 2.33392 222.346 21.1113C252.643 39.2894 268.428 63.4418 274.908 75.3281L275.507 76.4395L275.509 76.4424C288.071 100.158 300.716 123.875 313.362 147.595C325.271 169.93 337.178 192.269 349.02 214.607L463.564 0H479.153L349.291 243.125Z" fill="#EEEEEE"/>
</svg>
